<?xml version="1.0"?>
<svg width="128" height="128" xmlns="http://www.w3.org/2000/svg" xmlns:svg="http://www.w3.org/2000/svg" preserveAspectRatio="xMidYMid" version="1.1">
 <g class="layer">
  <title>Layer 1</title>
  <g id="svg_1">
   <path d="m49.05,97.34c0,0 -4.75,2.79 3.39,3.73c9.86,1.13 14.89,0.97 25.75,-1.1c0,0 2.85,1.8 6.85,3.37c-24.35,10.52 -55.1,-0.61 -35.98,-6" fill="#5382A1" id="svg_2"/>
   <path d="m46.08,83.61c0,0 -5.33,3.98 2.82,4.83c10.53,1.09 18.84,1.18 33.23,-1.61c0,0 1.99,2.04 5.12,3.15c-29.44,8.68 -62.23,0.69 -41.16,-6.36" fill="#5382A1" id="svg_3"/>
   <path d="m71.16,60.32c6,6.97 -1.58,13.23 -1.58,13.23c0,0 15.24,-7.93 8.24,-17.86c-6.54,-9.26 -11.55,-13.86 15.58,-29.72c0,0 -42.58,10.72 -22.25,34.34" fill="#E76F00" id="svg_4"/>
   <path d="m103.36,107.49c0,0 3.52,2.92 -3.87,5.19c-14.06,4.29 -58.5,5.59 -70.84,0.17c-4.44,-1.95 3.89,-4.64 6.5,-5.21c2.73,-0.6 4.29,-0.48 4.29,-0.48c-4.94,-3.51 -31.9,6.88 -13.7,9.86c49.64,8.12 90.5,-3.66 77.62,-9.51" fill="#5382A1" id="svg_5"/>
   <path d="m51.34,69.38c0,0 -22.61,5.41 -8,7.38c6.16,0.83 18.46,0.65 29.9,-0.32c9.36,-0.8 18.75,-2.48 18.75,-2.48c0,0 -3.3,1.43 -5.69,3.07c-22.95,6.09 -67.3,3.26 -54.53,-2.97c10.79,-5.26 19.58,-4.66 19.58,-4.66" fill="#5382A1" id="svg_6"/>
   <path d="m91.89,92.23c23.34,-12.23 12.54,-23.97 5.01,-22.39c-1.85,0.39 -2.67,0.72 -2.67,0.72c0,0 0.69,-1.08 2,-1.55c14.9,-5.28 26.36,15.57 -4.81,23.84c0,0 0.36,-0.32 0.47,-0.62" fill="#5382A1" id="svg_7"/>
   <path d="m77.82,0.36c0,0 12.92,13.03 -12.26,33.07c-20.19,16.08 -4.61,25.24 -0.01,35.71c-11.79,-10.72 -20.44,-20.16 -14.64,-28.94c8.52,-12.9 32.12,-19.15 26.9,-39.85" fill="#E76F00" id="svg_8"/>
   <path d="m53.63,125.37c22.4,1.45 56.8,-0.8 57.61,-11.48c0,0 -1.57,4.05 -18.51,7.27c-19.12,3.63 -42.7,3.21 -56.68,0.88c0,0 2.86,2.39 17.58,3.34" fill="#5382A1" id="svg_9"/>
  </g>
 </g>
</svg>